<svg viewBox="0 0 720 145" fill="none" xmlns="http://www.w3.org/2000/svg">
  <path
    d="M8.16 52.0799C16.28 44.8799 25.08 44.9499 34.61 47.0599L101.2 61.7199C115.17 64.6799 118.65 55.9599 118.65 55.9599C127.88 66.3599 128.55 83.2399 117.53 93.0199C109.41 100.22 100.61 100.15 91.08 98.0399L24.49 83.3799C10.52 80.4199 7.04 89.1399 7.04 89.1399C-2.19 78.7399 -2.86 61.8599 8.16 52.0799Z"
    fill="#2B2C30"
  />
  <path d="M62.45 6.18994V38.1399C62.43 40.3099 63.94 42.1899 66.06 42.6599L102.9 50.7999C107.27 51.7699 110.33 46.5699 107.36 43.2199L71.51 2.74994C68.35 -0.820057 62.45 1.41994 62.45 6.17994V6.18994Z" fill="#2B2C30" />
  <path d="M63.18 138.85V106.9C63.2 104.73 61.69 102.85 59.57 102.38L22.73 94.2399C18.36 93.2699 15.3 98.4699 18.27 101.82L54.12 142.28C57.28 145.85 63.18 143.61 63.18 138.85Z" fill="#2B2C30" />
  <path
    d="M186.38 99.45C172.48 99.45 163.96 93.27 162.94 82.48L172.75 81.4C173.57 88.22 178.09 91.68 186.17 91.68C192.69 91.68 195.99 89.43 195.99 84.98C195.99 80.01 191.88 78.89 184.62 77.34C169.88 74.23 164.66 70.18 164.66 61.86C164.71 52.62 172.41 46.65 184.28 46.65C197.45 46.65 204.7 52.54 205.29 63.67L196.38 64.69C195.69 58.03 191.44 54.36 184.38 54.36C178.38 54.36 174.93 56.84 174.93 61.16C174.93 65.77 178.55 67.35 186.67 69.17C199.72 72.09 205.94 75.1 205.94 84.34C205.94 93.58 198.45 99.44 186.39 99.44L186.38 99.45Z"
    fill="#2B2C30"
  />
  <path
    d="M356.76 46.65C348.72 46.65 342.07 50.89 338.76 57.08L338.59 47.65H329.17V118.71H339.38V89.33L339.73 90.01C343.14 95.98 349.14 99.45 356.77 99.45C370.75 99.45 379.44 89.28 379.44 72.92C379.44 56.56 370.75 46.65 356.77 46.65H356.76ZM354.48 90.41C345.19 90.41 338.95 83.38 338.95 72.92C338.95 62.46 345.19 55.69 354.48 55.69C363.77 55.69 369.06 62.13 369.06 72.92C369.06 83.71 363.47 90.41 354.48 90.41Z"
    fill="#2B2C30"
  />
  <path
    d="M297.96 46.65C289.92 46.65 283.27 50.89 279.96 57.08L279.79 47.65H270.37V118.71H280.58V89.33L280.93 90.01C284.34 95.98 290.34 99.45 297.97 99.45C311.95 99.45 320.64 89.28 320.64 72.92C320.64 56.56 311.95 46.65 297.97 46.65H297.96ZM295.68 90.41C286.39 90.41 280.15 83.38 280.15 72.92C280.15 62.46 286.39 55.69 295.68 55.69C304.97 55.69 310.26 62.13 310.26 72.92C310.26 83.71 304.67 90.41 295.68 90.41Z"
    fill="#2B2C30"
  />
  <path
    d="M413.24 99.45C397.84 99.45 387.5 88.83 387.5 73.03C387.5 57.23 397.84 46.66 413.24 46.66C428.64 46.66 438.93 57.26 438.93 73.03C438.93 88.8 428.61 99.45 413.24 99.45ZM413.24 55.64C403.95 55.64 397.71 62.63 397.71 73.03C397.71 83.43 403.95 90.41 413.24 90.41C422.53 90.41 428.77 83.42 428.77 73.03C428.77 62.64 422.53 55.64 413.24 55.64Z"
    fill="#2B2C30"
  />
  <path
    d="M472.85 46.55C466.01 46.55 459.58 51.5101 456.72 58.4501L456.67 47.6501H447.47V98.39H457.36V74.13C457.36 62.58 465.14 57.42 472.86 57.42C474.05 57.42 475.26 57.5401 476.47 57.7701V46.9001C475.24 46.6701 474.03 46.5601 472.86 46.5601L472.85 46.55Z"
    fill="#2B2C30"
  />
  <path
    d="M500.83 99.13C489.72 99.13 484.09 93.3 484.09 81.8V32.89L494.24 31.42V47.65H510.32V56.06H494.24V80.38C494.24 87.04 496.92 90.15 502.68 90.15C505.01 90.15 507.45 89.58 510.32 88.37V97.43C507.3 98.6 504.27 99.14 500.83 99.14V99.13Z"
    fill="#2B2C30"
  />
  <path d="M577.02 98.39V47.65H587.23V98.39H577.02ZM582.07 39.02C578.33 39.02 575.17 35.91 575.17 32.22C575.17 28.53 578.27 25.53 582.07 25.53C585.87 25.53 589.13 28.53 589.13 32.22C589.13 35.91 585.96 39.02 582.07 39.02Z" fill="#2B2C30" />
  <path
    d="M634.59 98.39V69.26C634.59 60.29 631.15 56.11 623.77 56.11C615.1 56.11 609.72 62.59 609.72 73.02V98.39H599.51V47.65H601.26L609 56.69L609.28 56.19C612.55 50.3 619.12 46.65 626.41 46.65C638.44 46.65 644.8 53.54 644.8 66.57V98.39H634.59Z"
    fill="#2B2C30"
  />
  <path
    d="M554.52 98.39V69.26C554.52 60.29 551.08 56.11 543.7 56.11C535.03 56.11 529.65 62.59 529.65 73.02V98.39H519.44V47.65H521.19L528.93 56.69L529.21 56.19C532.48 50.3 539.05 46.65 546.34 46.65C558.37 46.65 564.73 53.54 564.73 66.57V98.39H554.52Z"
    fill="#2B2C30"
  />
  <path
    d="M232.39 99.4C220.36 99.4 214 92.51 214 79.48V47.66H224.21V77.01C224.21 85.9 227.65 90.05 235.03 90.05C243.7 90.05 249.08 83.61 249.08 73.26V47.67H259.29V98.41H257.54L249.8 89.37L249.52 89.87C246.24 95.76 239.68 99.42 232.39 99.42V99.4Z"
    fill="#2B2C30"
  />
  <path
    d="M645.73 120.24V111.84C645.85 111.84 645.98 111.84 646.1 111.84C652.87 111.84 655.89 108.58 655.89 101.27V47.65H666.1V101.27C666.1 113.86 659.36 120.24 646.07 120.24H645.73ZM660.94 39.01C657.2 39.01 654.04 35.9 654.04 32.21C654.04 28.52 657.14 25.52 660.94 25.52C664.74 25.52 668 28.52 668 32.21C668 35.9 664.83 39.01 660.94 39.01Z"
    fill="#2B2C30"
  />
  <path
    d="M692.83 99.4C682.31 99.4 675.5 93.43 675.5 84.19C675.5 72.06 688.43 69.51 699.28 69.51C702.7 69.51 706.29 69.78 709.64 70.3L710.1 70.37V67.42C710.1 59.03 706.34 54.96 698.59 54.96C691.75 54.96 688.05 57.75 686.64 64L677.15 62.34C678.96 52.23 686.52 46.66 698.49 46.66C720 46.66 720 62.37 720 67.53V98.83H718.09L710.79 90.46L710.51 90.93C707.94 95.16 701.48 99.42 692.83 99.42V99.4ZM700.29 76.54C690.96 76.54 686.61 78.89 686.61 83.92C686.61 88.95 689.69 91.36 695.53 91.36C701.37 91.36 710.11 86.43 710.11 77.52V77.17L709.77 77.12C709.77 77.12 705.59 76.54 700.29 76.54Z"
    fill="#2B2C30"
  />
</svg>
